<?xml version="1.0" standalone="no"?>
<!DOCTYPE svg PUBLIC "-//W3C//DTD SVG 20010904//EN"
 "http://www.w3.org/TR/2001/REC-SVG-20010904/DTD/svg10.dtd">
<svg version="1.0" xmlns="http://www.w3.org/2000/svg"
 width="1200.000000pt" height="1200.000000pt" viewBox="0 0 1200.000000 1200.000000"
 preserveAspectRatio="xMidYMid meet">
<metadata>
Created by potrace 1.14, written by Peter Selinger 2001-2017
</metadata>
<g transform="translate(0.000000,1200.000000) scale(0.100000,-0.100000)"
fill="#000000" stroke="none">
<path d="M6355 10142 c-2 -2 -106 -5 -232 -8 -384 -7 -696 -15 -728 -18 -16
-2 -64 -7 -104 -11 -41 -3 -77 -8 -80 -9 -4 -2 -30 -7 -60 -10 -29 -4 -57 -8
-61 -11 -4 -2 -22 -7 -41 -10 -142 -24 -502 -175 -729 -306 -152 -88 -387
-297 -494 -439 -22 -30 -43 -57 -46 -60 -17 -17 -119 -180 -125 -200 -4 -14
-11 -29 -15 -35 -13 -16 -105 -203 -138 -280 -80 -186 -187 -555 -227 -783
-14 -84 -35 -213 -39 -250 -18 -146 -34 -286 -41 -357 -2 -27 -7 -77 -10 -110
-12 -127 -14 -154 -20 -265 -4 -63 -9 -117 -10 -120 -2 -3 -6 -43 -10 -90 -4
-47 -9 -93 -11 -104 -16 -87 -24 -739 -11 -936 4 -52 9 -158 12 -235 3 -77 8
-187 11 -245 2 -58 6 -195 9 -305 4 -193 11 -337 20 -400 2 -16 7 -64 10 -105
3 -41 10 -100 15 -130 5 -30 16 -111 25 -180 53 -412 106 -648 217 -960 16
-47 38 -104 49 -127 10 -24 19 -45 19 -47 0 -16 158 -329 200 -397 153 -244
344 -438 585 -591 228 -146 637 -309 855 -342 41 -6 175 -23 240 -30 70 -8
325 -16 675 -22 539 -9 492 -11 681 30 494 105 758 208 1019 396 156 112 262
201 369 307 108 107 149 163 283 378 95 153 351 672 358 725 2 14 6 54 10 90
4 36 8 67 10 70 2 3 6 28 9 55 4 28 18 118 32 202 13 84 24 174 24 200 0 26 5
66 10 88 6 22 13 94 15 160 7 185 -23 270 -112 315 -26 14 -50 25 -53 26 -3 0
-14 5 -25 9 -21 10 -133 11 -350 3 -82 -2 -165 1 -225 10 -106 15 -451 21
-547 9 -35 -4 -92 -17 -128 -28 -149 -46 -181 -69 -236 -172 -46 -86 -49 -100
-64 -255 -26 -274 -113 -485 -294 -712 -94 -118 -232 -193 -454 -249 -107 -28
-133 -32 -257 -49 -30 -4 -147 -6 -260 -6 -175 1 -217 5 -288 23 -124 32 -187
58 -258 107 -83 57 -225 200 -260 262 -15 26 -46 81 -70 122 -41 71 -68 135
-79 184 -2 12 -11 48 -19 81 -8 33 -17 80 -21 105 -3 25 -7 56 -10 70 -2 14
-7 56 -10 93 -4 37 -8 78 -11 90 -5 23 -13 82 -20 132 -9 79 -28 388 -39 645
-2 47 -7 119 -11 160 -10 96 -10 216 1 460 9 194 12 629 6 705 -3 36 -1 89 14
370 2 50 7 137 10 195 8 146 14 211 30 320 3 14 13 97 24 185 22 178 21 170
52 292 39 159 142 334 277 472 112 115 172 152 335 205 109 36 209 49 377 49
100 0 281 -13 320 -23 19 -5 51 -11 70 -14 150 -20 371 -108 465 -185 28 -22
70 -67 93 -98 24 -32 63 -85 88 -118 37 -50 98 -164 135 -250 8 -19 22 -75 33
-140 7 -39 10 -50 36 -175 41 -194 97 -276 203 -298 33 -7 166 -9 358 -7 168
1 326 -1 350 -6 118 -22 352 -31 444 -17 149 24 285 77 285 112 0 8 11 36 24
63 60 121 73 287 37 484 -11 64 -23 133 -27 154 -3 21 -14 64 -24 96 -11 32
-22 75 -26 96 -10 61 -44 182 -71 258 -22 65 -154 336 -174 361 -5 6 -28 49
-50 95 -71 145 -212 345 -310 439 -120 115 -163 153 -240 216 -47 38 -121 94
-164 124 -42 30 -101 72 -129 92 -77 56 -223 125 -359 169 -67 21 -131 41
-142 43 -11 3 -94 22 -185 44 -217 52 -296 70 -350 78 -47 7 -239 11 -245 6z"/>
</g>
</svg>
